<svg viewBox="0 6.01 1449.66 110.38" xmlns="http://www.w3.org/2000/svg"><circle cx="45.00" cy="50.00" r="39.00" fill="#B85C3C"/><g fill="#0E0D0B"><path d="M102.26174496644295 89.0 129.06442953020135 11.0H153.8778523489933L180.83758389261746 89.0H159.79328859060402L149.21879194630873 54.711409395973156Q146.65369127516777 46.126174496644296 144.14093959731542 37.38389261744966Q141.62818791946307 28.641610738255032 139.01073825503357 18.433557046979857H144.08859060402685Q141.36644295302014 28.641610738255032 138.8275167785235 37.38389261744966Q136.28859060402684 46.126174496644296 133.61879194630873 54.711409395973156L122.73020134228187 89.0ZM120.63624161073825 73.9758389261745V59.26577181208054H162.46308724832215V73.9758389261745Z"/><path d="M204.13288590604026 58.95167785234899V89.0H186.1248322147651V33.71946308724832H203.9234899328859V48.53422818791946H201.25369127516777Q203.81879194630872 41.205369127516775 208.68724832214764 36.86040268456375Q213.55570469798658 32.515436241610736 221.51275167785235 32.515436241610736Q227.53288590604026 32.515436241610736 231.7731543624161 35.10671140939597Q236.01342281879192 37.697986577181204 238.2644295302013 42.56644295302013Q240.51543624161073 47.43489932885906 240.51543624161073 54.24026845637584V89.0H222.50738255033556V58.00939597315436Q222.50738255033556 53.08859060402684 220.151677852349 50.49731543624161Q217.7959731543624 47.90604026845637 213.50335570469798 47.90604026845637Q210.6765100671141 47.90604026845637 208.55637583892616 49.11006711409396Q206.43624161073825 50.314093959731544 205.28456375838925 52.74832214765101Q204.13288590604026 55.18255033557047 204.13288590604026 58.95167785234899Z"/><path d="M272.18657718120807 90.20402684563759Q264.9624161073825 90.20402684563759 259.5704697986577 86.61812080536913Q254.17852348993287 83.03221476510068 251.2208053691275 76.51476510067114Q248.26308724832214 69.9973154362416 248.26308724832214 61.25503355704698Q248.26308724832214 52.7744966442953 251.29932885906038 46.283221476510064Q254.33557046979865 39.79194630872483 259.67516778523486 36.15369127516779Q265.0147651006711 32.515436241610736 272.02953020134225 32.515436241610736Q275.64161073825505 32.515436241610736 278.5731543624161 33.45771812080537Q281.5046979865772 34.4 283.83422818791945 36.310738255033556Q286.1637583892617 38.22147651006711 287.89127516778524 41.153020134228186H287.94362416107384V11.0H306.00402684563755V89.0H288.1530201342282V80.46711409395974H288.1006711409396Q286.68724832214764 83.71275167785235 284.3315436241611 85.88523489932886Q281.9758389261745 88.05771812080538 278.8872483221477 89.13087248322148Q275.7986577181208 90.20402684563759 272.18657718120807 90.20402684563759ZM277.21208053691277 75.80805369127516Q280.66711409395975 75.80805369127516 283.2322147651007 74.00201342281879Q285.7973154362416 72.19597315436242 287.23691275167783 68.9503355704698Q288.67651006711407 65.70469798657717 288.67651006711407 61.25503355704698Q288.67651006711407 56.857718120805366 287.23691275167783 53.638255033557044Q285.7973154362416 50.41879194630872 283.2322147651007 48.638926174496646Q280.66711409395975 46.85906040268456 277.21208053691277 46.85906040268456Q273.96644295302013 46.85906040268456 271.53221476510066 48.58657718120806Q269.0979865771812 50.314093959731544 267.81543624161077 53.533557046979865Q266.5328859060403 56.75302013422819 266.5328859060403 61.25503355704698Q266.5328859060403 65.80939597315437 267.81543624161077 69.05503355704698Q269.0979865771812 72.3006711409396 271.53221476510066 74.05436241610738Q273.96644295302013 75.80805369127516 277.21208053691277 75.80805369127516Z"/><path d="M316.05503355704695 89.0V33.71946308724832H333.48724832214765V43.45637583892617H333.6442953020134Q335.1624161073825 38.169127516778524 338.38187919463087 35.83959731543624Q341.60134228187917 33.51006711409396 347.1503355704698 33.51006711409396Q348.6161073825503 33.51006711409396 349.7939597315436 33.53624161073825Q350.9718120805369 33.562416107382546 352.0711409395973 33.614765100671136V48.48187919463087Q351.0765100671141 48.42953020134228 349.00872483221474 48.37718120805369Q346.94093959731543 48.3248322147651 344.95167785234895 48.3248322147651Q341.7583892617449 48.3248322147651 339.2979865771812 49.76442953020134Q336.83758389261743 51.204026845637586 335.45033557046975 53.97852348993288Q334.0630872483221 56.75302013422819 334.0630872483221 60.67919463087248V89.0Z"/><path d="M384.4228187919463 90.25637583892617Q375.94228187919464 90.25637583892617 369.5295302013423 86.56577181208053Q363.11677852349 82.8751677852349 359.5308724832215 76.33154362416107Q355.94496644295305 69.78791946308725 355.94496644295305 61.359731543624164Q355.94496644295305 52.93154362416107 359.5308724832215 46.38791946308724Q363.11677852349 39.84429530201342 369.45100671140943 36.15369127516779Q375.7852348993289 32.46308724832215 383.951677852349 32.46308724832215Q390.1812080536913 32.46308724832215 395.3114093959732 34.53087248322147Q400.44161073825506 36.598657718120805 404.1845637583893 40.42013422818792Q407.9275167785235 44.241610738255034 409.96912751677854 49.4503355704698Q412.0107382550336 54.65906040268456 412.0107382550336 60.940939597315435V65.80939597315437H361.8080536912752V55.0255033557047H403.5825503355705L395.3114093959732 57.2241610738255Q395.3114093959732 53.66442953020134 394.0026845637584 51.0993288590604Q392.69395973154366 48.53422818791946 390.2597315436242 47.14697986577181Q387.8255033557047 45.759731543624156 384.4228187919463 45.759731543624156Q381.02013422818794 45.759731543624156 378.58590604026847 47.14697986577181Q376.15167785234905 48.53422818791946 374.81677852349 51.0993288590604Q373.4818791946309 53.66442953020134 373.4818791946309 57.2241610738255V65.18120805369128Q373.4818791946309 68.84563758389262 374.8691275167786 71.59395973154363Q376.2563758389262 74.34228187919463 378.84765100671143 75.80805369127518Q381.43892617449666 77.27382550335571 385.0510067114094 77.27382550335571Q387.72080536912756 77.27382550335571 389.81476510067114 76.54093959731543Q391.9087248322148 75.80805369127516 393.32214765100673 74.44697986577181Q394.7355704697987 73.08590604026845 395.41610738255036 71.30604026845637H411.59194630872486Q410.5973154362416 76.85503355704698 406.7758389261745 81.12147651006711Q402.9543624161074 85.38791946308724 397.16979865771816 87.8221476510067Q391.3852348993289 90.25637583892617 384.4228187919463 90.25637583892617Z"/><path d="M431.74630872483226 89.0 414.7328859060403 33.71946308724832H433.6832214765101L437.9758389261745 50.99463087248322Q439.44161073825506 57.06711409395973 440.8026845637584 63.636912751677855Q442.1637583892618 70.20671140939598 443.5248322147651 76.59328859060403H441.1167785234899Q442.6348993288591 70.20671140939598 444.1530201342282 63.636912751677855Q445.6711409395973 57.06711409395973 447.2939597315436 50.99463087248322L451.848322147651 33.71946308724832H467.81476510067114L472.3691275167785 50.99463087248322Q473.99194630872483 57.06711409395973 475.510067114094 63.636912751677855Q477.0281879194631 70.20671140939598 478.5463087248322 76.59328859060403H476.1906040268457Q477.4993288590604 70.20671140939598 478.8080536912752 63.66308724832215Q480.11677852349 57.11946308724832 481.5302013422819 50.99463087248322L485.66577181208055 33.71946308724832H504.9302013422819L487.91677852348994 89.0H469.3328859060403L463.2080536912752 68.3221476510067Q462.3704697986577 65.33825503355705 461.55906040268457 62.19731543624161Q460.7476510067114 59.05637583892617 459.93624161073825 55.83691275167785Q459.1248322147651 52.61744966442953 458.28724832214766 49.4241610738255H461.4281879194631Q460.59060402684565 52.61744966442953 459.7791946308725 55.83691275167785Q458.96778523489934 59.05637583892617 458.1563758389262 62.19731543624161Q457.344966442953 65.33825503355705 456.455033557047 68.3221476510067L450.3302013422819 89.0Z"/><path d="M566.6496644295303 90.25637583892617Q556.075167785235 90.25637583892617 547.6208053691275 85.46644295302013Q539.1664429530201 80.6765100671141 534.2456375838926 71.67248322147651Q529.3248322147651 62.66845637583893 529.3248322147651 50.05234899328859Q529.3248322147651 37.33154362416107 534.2456375838926 28.301342281879194Q539.1664429530201 19.271140939597316 547.6208053691275 14.50738255033557Q556.075167785235 9.743624161073825 566.6496644295303 9.743624161073825Q577.2241610738256 9.743624161073825 585.6523489932887 14.50738255033557Q594.0805369127518 19.271140939597316 599.0013422818793 28.301342281879194Q603.9221476510068 37.33154362416107 603.9221476510068 50.05234899328859Q603.9221476510068 62.72080536912752 599.0013422818793 71.7248322147651Q594.0805369127518 80.72885906040268 585.6523489932887 85.49261744966444Q577.2241610738256 90.25637583892617 566.6496644295303 90.25637583892617ZM566.6496644295303 73.81879194630872Q572.2510067114094 73.81879194630872 576.3604026845637 71.01812080536912Q580.4697986577181 68.21744966442952 582.7208053691276 62.90402684563758Q584.971812080537 57.59060402684564 584.971812080537 50.05234899328859Q584.971812080537 42.46174496644295 582.7208053691276 37.12214765100671Q580.4697986577181 31.78255033557047 576.3604026845637 28.98187919463087Q572.2510067114094 26.18120805369127 566.6496644295303 26.18120805369127Q561.1006711409397 26.18120805369127 556.965100671141 28.98187919463087Q552.8295302013423 31.78255033557047 550.5523489932887 37.12214765100671Q548.275167785235 42.46174496644295 548.275167785235 50.05234899328859Q548.275167785235 57.59060402684564 550.5523489932887 62.90402684563758Q552.8295302013423 68.21744966442952 556.965100671141 71.01812080536912Q561.1006711409397 73.81879194630872 566.6496644295303 73.81879194630872Z"/><path d="M615.1248322147651 41.624161073825505 613.4496644295302 11.0H629.6778523489934L628.0026845637584 41.624161073825505Z"/><path d="M672.5516778523489 90.25637583892617Q662.186577181208 90.25637583892617 654.9100671140939 87.08926174496645Q647.6335570469798 83.92214765100671 643.8120805369127 77.8758389261745Q639.9906040268456 71.82953020134228 639.9906040268456 63.24429530201343H657.9463087248322Q658.0510067114094 66.96107382550335 659.88322147651 69.63087248322148Q661.7154362416107 72.3006711409396 664.9872483221477 73.71409395973154Q668.2590604026846 75.12751677852349 672.7087248322148 75.12751677852349Q676.7395973154362 75.12751677852349 679.6973154362415 74.08053691275168Q682.655033557047 73.03355704697987 684.3040268456375 71.12281879194632Q685.9530201342282 69.21208053691275 685.9530201342282 66.64697986577181Q685.9530201342282 64.448322147651 684.5657718120806 62.799328859060395Q683.1785234899329 61.15033557046979 680.2208053691274 59.92013422818792Q677.2630872483221 58.68993288590604 672.5516778523489 57.69530201342282L664.5422818791947 56.07248322147651Q653.1302013422819 53.71677852348993 647.3194630872483 48.141610738255025Q641.5087248322147 42.56644295302013 641.5087248322147 34.033557046979865Q641.5087248322147 26.75704697986577 645.3563758389262 21.312751677852344Q649.2040268456376 15.868456375838917 656.1140939597315 12.806040268456371Q663.0241610738254 9.743624161073825 672.1852348993289 9.743624161073825Q681.5557046979866 9.743624161073825 688.3087248322147 12.806040268456371Q695.0617449664429 15.868456375838917 698.8046979865771 21.574496644295298Q702.5476510067114 27.28053691275168 702.8093959731543 35.28993288590604H685.3771812080537Q685.0107382550335 30.42147651006711 681.5295302013423 27.64697986577181Q678.048322147651 24.872483221476514 672.4469798657718 24.872483221476514Q668.9395973154362 24.872483221476514 666.1912751677852 25.919463087248324Q663.4429530201342 26.966442953020135 661.8986577181208 28.8248322147651Q660.3543624161074 30.683221476510063 660.3543624161074 33.143624161073824Q660.3543624161074 35.28993288590604 661.6630872483222 36.834228187919464Q662.9718120805369 38.37852348993288 665.7463087248323 39.53020134228188Q668.5208053691275 40.68187919463087 672.9704697986576 41.57181208053691L679.8281879194631 42.93288590604027Q686.3194630872483 44.241610738255034 691.0046979865772 46.20469798657718Q695.689932885906 48.16778523489933 698.7 50.889932885906035Q701.7100671140939 53.61208053691275 703.1496644295302 57.19798657718121Q704.5892617449664 60.783892617449666 704.5892617449664 65.28590604026846Q704.5892617449664 73.13825503355704 700.7677852348993 78.71342281879194Q696.9463087248322 84.28859060402685 689.7744966442953 87.2724832214765Q682.6026845637583 90.25637583892617 672.5516778523489 90.25637583892617Z"/><path d="M731.1302013422819 58.95167785234899V89.0H713.1221476510067V11.0H731.1302013422819V48.53422818791946H728.2510067114093Q730.8161073825503 41.205369127516775 735.6845637583892 36.86040268456375Q740.5530201342282 32.515436241610736 748.5100671140939 32.515436241610736Q754.5302013422819 32.515436241610736 758.7704697986577 35.10671140939597Q763.0107382550335 37.697986577181204 765.2617449664428 42.56644295302013Q767.5127516778523 47.43489932885906 767.5127516778523 54.24026845637584V89.0H749.5046979865772V58.00939597315436Q749.5046979865772 53.08859060402684 747.1489932885906 50.49731543624161Q744.793288590604 47.90604026845637 740.5006711409396 47.90604026845637Q737.6738255033557 47.90604026845637 735.5536912751677 49.11006711409396Q733.4335570469798 50.314093959731544 732.2818791946308 52.74832214765101Q731.1302013422819 55.18255033557047 731.1302013422819 58.95167785234899Z"/><path d="M803.7382550335572 90.25637583892617Q795.2577181208054 90.25637583892617 788.8449664429531 86.56577181208053Q782.4322147651008 82.8751677852349 778.8463087248323 76.33154362416107Q775.2604026845638 69.78791946308725 775.2604026845638 61.359731543624164Q775.2604026845638 52.93154362416107 778.8463087248323 46.38791946308724Q782.4322147651008 39.84429530201342 788.7664429530203 36.15369127516779Q795.1006711409397 32.46308724832215 803.2671140939598 32.46308724832215Q809.4966442953021 32.46308724832215 814.626845637584 34.53087248322147Q819.7570469798659 36.598657718120805 823.5000000000001 40.42013422818792Q827.2429530201343 44.241610738255034 829.2845637583894 49.4503355704698Q831.3261744966444 54.65906040268456 831.3261744966444 60.940939597315435V65.80939597315437H781.123489932886V55.0255033557047H822.8979865771813L814.626845637584 57.2241610738255Q814.626845637584 53.66442953020134 813.3181208053692 51.0993288590604Q812.0093959731544 48.53422818791946 809.575167785235 47.14697986577181Q807.1409395973155 45.759731543624156 803.7382550335572 45.759731543624156Q800.3355704697988 45.759731543624156 797.9013422818794 47.14697986577181Q795.4671140939598 48.53422818791946 794.1322147651008 51.0993288590604Q792.7973154362417 53.66442953020134 792.7973154362417 57.2241610738255V65.18120805369128Q792.7973154362417 68.84563758389262 794.1845637583893 71.59395973154363Q795.571812080537 74.34228187919463 798.1630872483222 75.80805369127518Q800.7543624161075 77.27382550335571 804.3664429530202 77.27382550335571Q807.0362416107383 77.27382550335571 809.1302013422819 76.54093959731543Q811.2241610738256 75.80805369127516 812.6375838926175 74.44697986577181Q814.0510067114094 73.08590604026845 814.7315436241611 71.30604026845637H830.9073825503357Q829.9127516778524 76.85503355704698 826.0912751677853 81.12147651006711Q822.2697986577182 85.38791946308724 816.4852348993289 87.8221476510067Q810.7006711409397 90.25637583892617 803.7382550335572 90.25637583892617Z"/><path d="M838.8644295302014 89.0V33.71946308724832H856.8724832214766V89.0ZM847.8161073825504 28.32751677852349Q843.4711409395974 28.32751677852349 840.6966442953021 25.76241610738255Q837.9221476510068 23.19731543624161 837.9221476510068 19.218791946308727Q837.9221476510068 15.24026845637583 840.6966442953021 12.701342281879185Q843.4711409395974 10.16241610738254 847.8161073825504 10.16241610738254Q852.1610738255034 10.16241610738254 854.961744966443 12.701342281879185Q857.7624161073826 15.24026845637583 857.7624161073826 19.218791946308727Q857.7624161073826 23.19731543624161 854.961744966443 25.76241610738255Q852.1610738255034 28.32751677852349 847.8161073825504 28.32751677852349Z"/><path d="M969.94 26.08V11H1035.57V26.08H1012V89H993.54V26.08Z"/><path d="M1061.57 90.1Q1052.41 90.1 1045.79 86.47Q1039.16 82.84 1035.61 76.08Q1032.07 69.33 1032.07 59.97Q1032.07 50.93 1035.62 44.13Q1039.16 37.33 1045.64 33.54Q1052.12 29.74 1060.91 29.74Q1067.08 29.74 1072.25 31.68Q1077.41 33.63 1081.2 37.41Q1084.99 41.2 1087.07 46.76Q1089.15 52.32 1089.15 59.6V64.2H1038.54V53.54H1080.45L1071.92 56.07Q1071.92 51.99 1070.69 49.06Q1069.46 46.14 1067.05 44.55Q1064.65 42.97 1061.07 42.97Q1057.49 42.97 1055.04 44.57Q1052.58 46.16 1051.31 49.01Q1050.03 51.86 1050.03 55.71V63.34Q1050.03 67.85 1051.51 70.86Q1052.98 73.88 1055.67 75.37Q1058.35 76.87 1061.9 76.87Q1064.36 76.87 1066.37 76.17Q1068.38 75.48 1069.83 74.14Q1071.27 72.8 1072.02 70.85L1088.29 73.52Q1086.85 78.55 1083.24 82.28Q1079.64 86.01 1074.17 88.05Q1068.71 90.1 1061.57 90.1Z"/><path d="M1113.76 90.04Q1108.17 90.04 1103.8 88.13Q1099.43 86.21 1096.96 82.38Q1094.49 78.55 1094.49 72.75Q1094.49 67.88 1096.2 64.54Q1097.91 61.2 1100.94 59.12Q1103.96 57.04 1107.9 55.93Q1111.83 54.82 1116.27 54.45Q1121.27 54.01 1124.3 53.53Q1127.34 53.04 1128.74 52.05Q1130.14 51.06 1130.14 49.27V49.04Q1130.14 47.01 1129.2 45.6Q1128.25 44.2 1126.49 43.45Q1124.72 42.71 1122.19 42.71Q1119.67 42.71 1117.72 43.46Q1115.77 44.21 1114.51 45.56Q1113.25 46.9 1112.74 48.75L1096.17 46.6Q1097.34 41.58 1100.73 37.79Q1104.11 34 1109.57 31.87Q1115.04 29.74 1122.36 29.74Q1127.8 29.74 1132.54 31.02Q1137.28 32.31 1140.84 34.8Q1144.4 37.29 1146.4 40.92Q1148.39 44.56 1148.39 49.27V89H1131.21V80.8H1130.74Q1129.15 83.8 1126.73 85.85Q1124.32 87.91 1121.09 88.97Q1117.86 90.04 1113.76 90.04ZM1119.32 77.94Q1122.41 77.94 1124.89 76.69Q1127.36 75.45 1128.83 73.25Q1130.3 71.05 1130.3 68.17V62.56Q1129.52 62.96 1128.34 63.33Q1127.16 63.7 1125.75 64Q1124.34 64.3 1122.92 64.53Q1121.51 64.76 1120.23 64.96Q1117.54 65.34 1115.66 66.24Q1113.77 67.14 1112.79 68.55Q1111.8 69.95 1111.8 71.91Q1111.8 73.87 1112.78 75.22Q1113.75 76.56 1115.44 77.25Q1117.13 77.94 1119.32 77.94Z"/><path d="M1185.25 90.1Q1176.1 90.1 1169.51 86.31Q1162.92 82.52 1159.39 75.73Q1155.86 68.95 1155.86 59.94Q1155.86 50.9 1159.39 44.11Q1162.92 37.32 1169.51 33.53Q1176.1 29.74 1185.25 29.74Q1190.89 29.74 1195.53 31.2Q1200.18 32.66 1203.69 35.36Q1207.2 38.06 1209.37 41.91Q1211.54 45.76 1212.23 50.53L1195.38 53.34Q1194.95 51.04 1194.1 49.26Q1193.24 47.47 1192 46.23Q1190.76 44.98 1189.13 44.34Q1187.5 43.7 1185.49 43.7Q1181.98 43.7 1179.52 45.63Q1177.06 47.56 1175.77 51.18Q1174.47 54.8 1174.47 59.86Q1174.47 64.87 1175.77 68.52Q1177.06 72.17 1179.52 74.16Q1181.98 76.14 1185.49 76.14Q1187.51 76.14 1189.15 75.47Q1190.8 74.81 1192.07 73.53Q1193.35 72.25 1194.2 70.38Q1195.05 68.51 1195.44 66.15L1212.28 68.91Q1211.61 73.84 1209.43 77.73Q1207.25 81.63 1203.75 84.4Q1200.25 87.17 1195.58 88.63Q1190.9 90.1 1185.25 90.1Z"/><path d="M1237.84 55.6V89H1219.58V11H1237.44V45.26H1236.3Q1238.45 38.26 1243.04 34Q1247.63 29.74 1255.35 29.74Q1261.5 29.74 1266.06 32.47Q1270.61 35.21 1273.12 40.16Q1275.63 45.11 1275.63 51.75V89H1257.36V55.28Q1257.36 50.36 1254.84 47.55Q1252.32 44.75 1247.83 44.75Q1244.87 44.75 1242.62 46.04Q1240.36 47.34 1239.1 49.75Q1237.84 52.16 1237.84 55.6Z"/><path d="M1285.33 89V30.47H1303.58V89ZM1294.43 23.64Q1290.52 23.64 1287.75 21.05Q1284.98 18.46 1284.98 14.83Q1284.98 11.13 1287.75 8.57Q1290.52 6.01 1294.43 6.01Q1298.33 6.01 1301.11 8.57Q1303.89 11.12 1303.89 14.83Q1303.89 18.46 1301.11 21.05Q1298.33 23.64 1294.43 23.64Z"/><path d="M1331.58 55.6V89H1313.33V30.47H1330.5L1330.83 45.26H1330.04Q1332.19 38.26 1336.78 34Q1341.37 29.74 1349.09 29.74Q1355.25 29.74 1359.8 32.47Q1364.34 35.21 1366.85 40.16Q1369.36 45.11 1369.36 51.75V89H1351.1V55.28Q1351.1 50.36 1348.58 47.55Q1346.06 44.75 1341.57 44.75Q1338.62 44.75 1336.36 46.04Q1334.1 47.34 1332.84 49.75Q1331.58 52.16 1331.58 55.6Z"/><path d="M1406.01 112.14Q1398.36 112.14 1392.65 110.21Q1386.94 108.28 1383.42 104.83Q1379.9 101.37 1378.82 96.78L1394.7 93.53Q1395.24 95.13 1396.64 96.47Q1398.04 97.82 1400.36 98.62Q1402.67 99.42 1405.93 99.42Q1411.51 99.42 1414.51 96.91Q1417.5 94.39 1417.5 89.16V78.79H1416.14Q1415.06 81.42 1413 83.56Q1410.93 85.7 1407.77 86.96Q1404.62 88.22 1400.24 88.22Q1393.82 88.22 1388.5 85.21Q1383.17 82.21 1379.99 75.9Q1376.8 69.59 1376.8 59.71Q1376.8 49.46 1380.09 42.83Q1383.39 36.19 1388.72 32.97Q1394.04 29.74 1400.21 29.74Q1404.87 29.74 1408.18 31.32Q1411.5 32.9 1413.67 35.39Q1415.84 37.88 1416.95 40.52H1417.49V30.47H1435.52V87.69Q1435.52 95.75 1431.78 101.2Q1428.04 106.64 1421.4 109.39Q1414.76 112.14 1406.01 112.14ZM1406.5 74.83Q1410.01 74.83 1412.46 73.03Q1414.91 71.23 1416.22 67.83Q1417.53 64.42 1417.53 59.66Q1417.53 54.87 1416.23 51.36Q1414.93 47.86 1412.47 45.94Q1410.02 44.02 1406.5 44.02Q1402.98 44.02 1400.54 45.98Q1398.09 47.93 1396.83 51.44Q1395.57 54.95 1395.57 59.66Q1395.57 64.37 1396.84 67.78Q1398.11 71.2 1400.55 73.01Q1402.99 74.83 1406.5 74.83Z"/></g><path d="M931.91 7.34 906.78 100.73H898.09L923.22 7.34Z" fill="#6B6862"/></svg>